<svg width="85" height="90" viewBox="0 0 85 90" fill="none" xmlns="http://www.w3.org/2000/svg">
<path d="M85 77.5C85 84.405 79.7158 90 73.1944 90H11.8056C5.28653 90 0 84.405 0 77.5V12.5C0 5.595 5.28653 0 11.8056 0H73.1944C79.7158 0 85 5.595 85 12.5V77.5Z" fill="#673AB7"/>
<path d="M63.8208 49C62.2861 46.75 60.0667 45.2 57.2097 44.375C57.2097 44.375 59.6181 43.45 61.7903 40C63.0889 37.8 63.75 35.15 63.75 32.05C63.75 26.675 61.9083 22.55 58.225 19.725C54.5417 16.9 50.3861 15 43.3264 15H21.25V75H45.8764C52.5583 74.95 57.5875 73.425 61.0111 70.5C64.4111 67.525 66.1111 63.125 66.1111 57.25C66.1111 54 65.3556 51.25 63.8208 49ZM35.4167 25C35.4167 25 45.2625 25 45.4514 25C49.0403 25 51.9444 28.075 51.9444 31.875C51.9444 35.675 49.0403 38.75 45.4514 38.75C45.2625 38.75 35.4167 38.75 35.4167 38.75V25ZM47.2222 65H35.4167V50H47.2222C51.1417 50 54.3056 53.35 54.3056 57.5C54.3056 61.65 51.1417 65 47.2222 65Z" fill="white"/>
</svg>
