<svg width="218" height="159" viewBox="0 0 218 159" fill="none" xmlns="http://www.w3.org/2000/svg">
<g id="All">
<path id="Vector" d="M35.4151 74.0394C38.6064 74.0394 41.1934 71.1258 41.1934 67.5316C41.1934 63.9375 38.6064 61.0239 35.4151 61.0239C32.2238 61.0239 29.6368 63.9375 29.6368 67.5316C29.6368 71.1258 32.2238 74.0394 35.4151 74.0394Z" fill="#FFB8B8"/>
<path id="Vector_2" d="M15.8904 145.517L17.3535 148.316L27.6373 143.293L25.4778 139.161L15.8904 145.517Z" fill="#FFB8B8"/>
<path id="Vector_3" d="M16.3288 144.265L19.2101 149.778L19.2103 149.778C19.4514 150.239 19.6095 150.75 19.6755 151.28C19.7415 151.81 19.7141 152.35 19.5949 152.868C19.4757 153.386 19.2671 153.873 18.9809 154.301C18.6946 154.728 18.3365 155.088 17.9268 155.359L17.8254 155.427L13.1078 146.4L16.3288 144.265Z" fill="#2F2E41"/>
<path id="Vector_4" d="M32.8427 155.602L35.7271 155.602L37.0991 143.072L32.8423 143.072L32.8427 155.602Z" fill="#FFB8B8"/>
<path id="Vector_5" d="M32.1071 154.541L37.7872 154.541H37.7875C38.2628 154.541 38.7336 154.646 39.1727 154.851C39.6119 155.056 40.011 155.356 40.3471 155.735C40.6833 156.114 40.9499 156.563 41.1318 157.058C41.3137 157.552 41.4073 158.082 41.4073 158.618V158.75L32.1073 158.751L32.1071 154.541Z" fill="#2F2E41"/>
<path id="Vector_6" d="M21.247 148.011C21.081 148.011 20.9173 147.967 20.7692 147.882C20.621 147.798 20.4926 147.676 20.3944 147.525L17.6127 143.27C17.5278 143.14 17.4672 142.992 17.4345 142.836C17.4018 142.679 17.3977 142.516 17.4224 142.357C17.4472 142.198 17.5002 142.047 17.5784 141.912C17.6566 141.777 17.7582 141.661 17.8772 141.572L30.2554 132.26L22.7866 110.143L38.7584 111.627L39.2964 130.634C39.3468 132.365 38.9785 134.079 38.2306 135.592C37.4828 137.105 36.3837 138.361 35.051 139.225L21.7759 147.85C21.6152 147.955 21.4327 148.011 21.247 148.011Z" fill="#2F2E41"/>
<path id="Vector_7" d="M32.9298 153.058C32.6559 153.058 32.3929 152.937 32.1959 152.723C31.999 152.509 31.8835 152.216 31.8738 151.908L31.2885 133.392L38.5365 132.962L37.9594 151.611C37.9509 151.907 37.845 152.188 37.6623 152.4C37.4796 152.612 37.2333 152.74 36.9714 152.759L33.0018 153.056C32.9777 153.057 32.9537 153.058 32.9298 153.058Z" fill="#2F2E41"/>
<path id="Vector_8" d="M40.6068 115.304C38.7628 115.304 32.3217 112.968 30.0856 112.135C29.7511 112.437 27.9134 113.984 25.7683 113.702C24.4447 113.527 23.2794 112.683 22.305 111.194C20.153 107.904 22.8109 93.7984 25.4196 82.5442C25.9426 80.2694 27.2283 78.3115 29.0064 77.0821C30.7846 75.8527 32.9166 75.4476 34.9545 75.9519C36.4315 76.3192 37.7883 77.143 38.8725 78.3308C39.9567 79.5187 40.7253 81.0235 41.0919 82.6762C41.5831 84.9278 41.1606 87.5764 40.8521 89.5106C40.7071 90.4198 40.5925 91.1381 40.6317 91.4911C40.7831 92.8552 41.6242 114.249 41.0833 115.163C41.0257 115.26 40.8592 115.304 40.6068 115.304Z" fill="#6C63FF"/>
<path id="Vector_9" d="M33.8607 115.342C34.1571 115.093 34.4015 114.775 34.5767 114.408C34.7519 114.042 34.8536 113.637 34.8747 113.221C34.8959 112.806 34.8358 112.39 34.6989 112.004C34.562 111.617 34.3515 111.269 34.0822 110.984L34.1964 85.0595L28.7748 86.0763L30.3674 111.24C29.9723 111.781 29.7672 112.467 29.791 113.167C29.8147 113.867 30.0657 114.533 30.4963 115.038C30.9269 115.544 31.5072 115.854 32.1273 115.91C32.7474 115.966 33.3641 115.764 33.8607 115.342Z" fill="#FFB8B8"/>
<path id="Vector_10" d="M35.1146 101.709H29.275C28.9961 101.708 28.7288 101.583 28.5307 101.362C28.3326 101.141 28.2197 100.841 28.2163 100.527L28.0729 82.6974C28.068 82.0809 28.1716 81.4693 28.3778 80.8982C28.584 80.3271 28.8887 79.8077 29.2743 79.37C29.6598 78.9323 30.1186 78.5851 30.6241 78.3484C31.1296 78.1117 31.6717 77.9902 32.2191 77.9909C32.7666 77.9917 33.3085 78.1147 33.8134 78.3528C34.3184 78.5909 34.7764 78.9394 35.161 79.3781C35.5457 79.8168 35.8492 80.3371 36.0542 80.9088C36.2592 81.4805 36.3615 82.0923 36.3552 82.7088L36.1732 100.53C36.1691 100.844 36.0559 101.143 35.8579 101.363C35.6599 101.584 35.393 101.708 35.1146 101.709Z" fill="#6C63FF"/>
<path id="Vector_11" d="M33.9438 74.0123C31.2982 74.0177 28.8023 71.6626 28.3439 68.728C28.1797 67.5752 28.2537 66.3953 28.5601 65.2799C28.8928 64.0101 29.4633 62.8355 30.2332 61.8351C31.0031 60.8347 31.9545 60.0318 33.0233 59.4806C34.092 58.9293 35.2533 58.6425 36.4287 58.6396C37.6042 58.6366 38.7666 58.9174 39.8376 59.4632C40.5453 59.8239 41.2424 60.342 41.5665 61.1371C41.8906 61.9323 41.6877 63.0436 40.9788 63.4014C40.5155 63.6352 39.9342 63.5204 39.5232 63.856C38.9329 64.3381 39.0848 65.364 39.3484 66.1297C39.612 66.8954 39.9102 67.822 39.4683 68.4752C39.0565 69.0839 38.2335 69.065 37.5852 68.8359C36.9369 68.6068 36.297 68.2231 35.621 68.3012C34.6352 68.415 33.9267 69.5194 33.7956 70.6257C33.6645 71.732 33.9732 72.8379 34.2779 73.8999L33.9438 74.0123Z" fill="#2F2E41"/>
<path id="Vector_12" d="M60.9332 159H0.235263C0.172868 159 0.113027 158.972 0.0689068 158.922C0.0247864 158.873 0 158.805 0 158.735C0 158.665 0.0247864 158.597 0.0689068 158.548C0.113027 158.498 0.172868 158.47 0.235263 158.47H60.9332C60.9956 158.47 61.0554 158.498 61.0995 158.548C61.1437 158.597 61.1684 158.665 61.1684 158.735C61.1684 158.805 61.1437 158.873 61.0995 158.922C61.0554 158.972 60.9956 159 60.9332 159Z" fill="#CCCCCC"/>
<path id="Vector_13" d="M214.118 115.139H63.3524C62.3233 115.138 61.3366 114.677 60.6088 113.857C59.8811 113.037 59.4718 111.926 59.4706 110.767V6.06604C59.4714 5.21687 59.7713 4.40275 60.3045 3.80229C60.8376 3.20182 61.5604 2.86405 62.3144 2.86307H215.107C215.874 2.86405 216.609 3.20766 217.152 3.8185C217.694 4.42935 217.999 5.25755 218 6.12141V110.767C217.999 111.926 217.589 113.037 216.862 113.857C216.134 114.677 215.147 115.138 214.118 115.139Z" fill="#F2F2F2"/>
<path id="Vector_14" d="M209.243 109.619H68.7338C66.6741 109.619 64.9984 107.852 64.9984 105.68V14.5046C64.9984 12.8936 66.2401 11.5829 67.7664 11.5829H210.165C211.717 11.5829 212.979 12.9152 212.979 14.5528V105.68C212.979 107.852 211.303 109.619 209.243 109.619Z" fill="white"/>
<path id="Vector_15" d="M217.946 6.61086H59.4161V4.38507C59.4176 3.22213 59.8286 2.10733 60.559 1.28526C61.2894 0.463185 62.2795 0.000964297 63.3121 0H214.05C215.083 0.00095449 216.073 0.463171 216.803 1.28525C217.533 2.10732 217.944 3.22212 217.946 4.38507V6.61086Z" fill="#3F3D56"/>
<path id="Vector_16" d="M66.4964 4.44695C67.053 4.44695 67.5042 3.93882 67.5042 3.31201C67.5042 2.6852 67.053 2.17706 66.4964 2.17706C65.9399 2.17706 65.4887 2.6852 65.4887 3.31201C65.4887 3.93882 65.9399 4.44695 66.4964 4.44695Z" fill="white"/>
<path id="Vector_17" d="M70.3215 4.44695C70.8781 4.44695 71.3293 3.93882 71.3293 3.31201C71.3293 2.6852 70.8781 2.17706 70.3215 2.17706C69.765 2.17706 69.3138 2.6852 69.3138 3.31201C69.3138 3.93882 69.765 4.44695 70.3215 4.44695Z" fill="white"/>
<path id="Vector_18" d="M74.1466 4.44695C74.7032 4.44695 75.1544 3.93882 75.1544 3.31201C75.1544 2.6852 74.7032 2.17706 74.1466 2.17706C73.5901 2.17706 73.1389 2.6852 73.1389 3.31201C73.1389 3.93882 73.5901 4.44695 74.1466 4.44695Z" fill="white"/>
<path id="Vector_19" d="M135.655 31.5185H108.175C107.765 31.5185 107.372 31.3352 107.082 31.0089C106.793 30.6826 106.63 30.2401 106.63 29.7787C106.63 29.3173 106.793 28.8747 107.082 28.5485C107.372 28.2222 107.765 28.0389 108.175 28.0389H135.655C136.065 28.0389 136.458 28.2222 136.748 28.5485C137.037 28.8747 137.2 29.3173 137.2 29.7787C137.2 30.2401 137.037 30.6826 136.748 31.0089C136.458 31.3352 136.065 31.5185 135.655 31.5185Z" fill="#CCCCCC"/>
<path id="Vector_20" d="M169.803 31.5185H142.322C141.912 31.5185 141.52 31.3352 141.23 31.0089C140.94 30.6826 140.777 30.2401 140.777 29.7787C140.777 29.3173 140.94 28.8747 141.23 28.5485C141.52 28.2222 141.912 28.0389 142.322 28.0389H169.803C170.213 28.0389 170.605 28.2222 170.895 28.5485C171.185 28.8747 171.348 29.3173 171.348 29.7787C171.348 30.2401 171.185 30.6826 170.895 31.0089C170.605 31.3352 170.213 31.5185 169.803 31.5185Z" fill="#CCCCCC"/>
<path id="Vector_21" d="M169.803 38.1113H121.996C121.587 38.1113 121.194 37.928 120.904 37.6017C120.614 37.2755 120.451 36.8329 120.451 36.3715C120.451 35.9101 120.614 35.4676 120.904 35.1413C121.194 34.815 121.587 34.6318 121.996 34.6318H169.803C170.213 34.6318 170.605 34.815 170.895 35.1413C171.185 35.4676 171.348 35.9101 171.348 36.3715C171.348 36.8329 171.185 37.2755 170.895 37.6017C170.605 37.928 170.213 38.1113 169.803 38.1113Z" fill="#CCCCCC"/>
<path id="Vector_22" d="M135.655 24.834H108.175C107.765 24.8335 107.373 24.6499 107.083 24.3237C106.794 23.9975 106.632 23.5553 106.632 23.0943C106.632 22.6332 106.794 22.191 107.083 21.8648C107.373 21.5386 107.765 21.3551 108.175 21.3545H135.655C135.858 21.3542 136.059 21.399 136.247 21.4863C136.435 21.5736 136.605 21.7017 136.749 21.8633C136.892 22.0249 137.006 22.2168 137.084 22.428C137.162 22.6392 137.202 22.8656 137.202 23.0943C137.202 23.3229 137.162 23.5493 137.084 23.7605C137.006 23.9718 136.892 24.1637 136.749 24.3252C136.605 24.4868 136.435 24.6149 136.247 24.7022C136.059 24.7895 135.858 24.8343 135.655 24.834Z" fill="#CCCCCC"/>
<path id="Vector_23" d="M150.778 24.9256H142.973C142.563 24.9256 142.17 24.7423 141.88 24.416C141.591 24.0898 141.428 23.6472 141.428 23.1858C141.428 22.7244 141.591 22.2819 141.88 21.9556C142.17 21.6293 142.563 21.4461 142.973 21.4461H150.778C151.187 21.4461 151.58 21.6293 151.87 21.9556C152.16 22.2819 152.322 22.7244 152.322 23.1858C152.322 23.6472 152.16 24.0898 151.87 24.416C151.58 24.7423 151.187 24.9256 150.778 24.9256Z" fill="#CCCCCC"/>
<path id="Vector_24" d="M115.98 38.1113H108.175C107.765 38.1107 107.373 37.9272 107.083 37.601C106.794 37.2748 106.632 36.8326 106.632 36.3715C106.632 35.9105 106.794 35.4683 107.083 35.1421C107.373 34.8159 107.765 34.6323 108.175 34.6318H115.98C116.183 34.6315 116.384 34.6763 116.571 34.7636C116.759 34.8509 116.93 34.979 117.073 35.1406C117.217 35.3021 117.331 35.494 117.409 35.7052C117.486 35.9165 117.526 36.1429 117.526 36.3715C117.526 36.6002 117.486 36.8266 117.409 37.0378C117.331 37.249 117.217 37.4409 117.073 37.6025C116.93 37.7641 116.759 37.8922 116.571 37.9795C116.384 38.0668 116.183 38.1116 115.98 38.1113Z" fill="#CCCCCC"/>
<path id="Vector_25" d="M135.655 93.2547H108.175C107.765 93.2547 107.372 93.0714 107.082 92.7452C106.793 92.4189 106.63 91.9764 106.63 91.5149C106.63 91.0535 106.793 90.611 107.082 90.2847C107.372 89.9585 107.765 89.7752 108.175 89.7752H135.655C135.858 89.7752 136.059 89.8202 136.246 89.9076C136.434 89.995 136.604 90.1232 136.748 90.2847C136.891 90.4463 137.005 90.6381 137.082 90.8492C137.16 91.0602 137.2 91.2865 137.2 91.5149C137.2 91.7434 137.16 91.9697 137.082 92.1807C137.005 92.3918 136.891 92.5836 136.748 92.7452C136.604 92.9067 136.434 93.0349 136.246 93.1223C136.059 93.2097 135.858 93.2547 135.655 93.2547Z" fill="#CCCCCC"/>
<path id="Vector_26" d="M169.803 93.2547H142.322C141.912 93.2547 141.52 93.0714 141.23 92.7452C140.94 92.4189 140.777 91.9764 140.777 91.5149C140.777 91.0535 140.94 90.611 141.23 90.2847C141.52 89.9585 141.912 89.7752 142.322 89.7752H169.803C170.006 89.7752 170.207 89.8202 170.394 89.9076C170.581 89.995 170.752 90.1232 170.895 90.2847C171.039 90.4463 171.152 90.6381 171.23 90.8492C171.308 91.0602 171.348 91.2865 171.348 91.5149C171.348 91.7434 171.308 91.9697 171.23 92.1807C171.152 92.3918 171.039 92.5836 170.895 92.7452C170.752 92.9067 170.581 93.0349 170.394 93.1223C170.207 93.2097 170.006 93.2547 169.803 93.2547Z" fill="#CCCCCC"/>
<path id="Vector_27" d="M169.803 99.8476H121.996C121.587 99.8476 121.194 99.6643 120.904 99.338C120.614 99.0118 120.451 98.5692 120.451 98.1078C120.451 97.6464 120.614 97.2039 120.904 96.8776C121.194 96.5514 121.587 96.3681 121.996 96.3681H169.803C170.006 96.3678 170.207 96.4126 170.395 96.4999C170.582 96.5872 170.753 96.7153 170.896 96.8769C171.04 97.0384 171.154 97.2303 171.232 97.4416C171.31 97.6528 171.35 97.8792 171.35 98.1078C171.35 98.3365 171.31 98.5629 171.232 98.7741C171.154 98.9853 171.04 99.1772 170.896 99.3388C170.753 99.5004 170.582 99.6285 170.395 99.7158C170.207 99.8031 170.006 99.8479 169.803 99.8476Z" fill="#CCCCCC"/>
<path id="Vector_28" d="M135.655 86.5703H108.175C107.765 86.5703 107.372 86.387 107.082 86.0607C106.793 85.7345 106.63 85.2919 106.63 84.8305C106.63 84.3691 106.793 83.9266 107.082 83.6003C107.372 83.2741 107.765 83.0908 108.175 83.0908H135.655C136.065 83.0908 136.458 83.2741 136.748 83.6003C137.037 83.9266 137.2 84.3691 137.2 84.8305C137.2 85.2919 137.037 85.7345 136.748 86.0607C136.458 86.387 136.065 86.5703 135.655 86.5703Z" fill="#CCCCCC"/>
<path id="Vector_29" d="M150.778 86.6618H142.973C142.563 86.6618 142.17 86.4785 141.88 86.1523C141.591 85.826 141.428 85.3835 141.428 84.9221C141.428 84.4607 141.591 84.0182 141.88 83.6919C142.17 83.3656 142.563 83.1823 142.973 83.1823H150.778C151.187 83.1823 151.58 83.3656 151.87 83.6919C152.16 84.0182 152.322 84.4607 152.322 84.9221C152.322 85.3835 152.16 85.826 151.87 86.1523C151.58 86.4785 151.187 86.6618 150.778 86.6618Z" fill="#CCCCCC"/>
<path id="Vector_30" d="M115.98 99.8476H108.175C107.765 99.8476 107.372 99.6643 107.082 99.338C106.793 99.0118 106.63 98.5692 106.63 98.1078C106.63 97.6464 106.793 97.2039 107.082 96.8776C107.372 96.5514 107.765 96.3681 108.175 96.3681H115.98C116.183 96.3678 116.384 96.4126 116.571 96.4999C116.759 96.5872 116.93 96.7153 117.073 96.8769C117.217 97.0384 117.331 97.2303 117.409 97.4416C117.486 97.6528 117.526 97.8792 117.526 98.1078C117.526 98.3365 117.486 98.5629 117.409 98.7741C117.331 98.9853 117.217 99.1772 117.073 99.3388C116.93 99.5004 116.759 99.6285 116.571 99.7158C116.384 99.8031 116.183 99.8479 115.98 99.8476Z" fill="#CCCCCC"/>
<path id="Vector_31" d="M128.478 74.5768C127.895 74.5783 127.335 74.3202 126.92 73.8587L116.59 62.3701C116.387 62.1446 116.226 61.8759 116.116 61.5798C116.006 61.2836 115.95 60.9658 115.95 60.6448C115.95 60.3238 116.006 60.006 116.116 59.7098C116.226 59.4136 116.387 59.145 116.59 58.9194L126.878 47.4772C127.307 47.0028 127.884 46.7379 128.485 46.7401C129.086 46.7422 129.662 47.0112 130.088 47.4886C130.514 47.9698 130.754 48.6219 130.754 49.3018C130.754 49.9816 130.514 50.6337 130.088 51.115L122.443 59.7254C122.205 59.9943 122.071 60.3586 122.071 60.7385C122.071 61.1183 122.205 61.4826 122.443 61.7515L130.046 70.3151C130.357 70.6641 130.569 71.1091 130.654 71.5936C130.74 72.0782 130.696 72.5805 130.528 73.0369C130.36 73.4933 130.076 73.8833 129.711 74.1574C129.346 74.4316 128.917 74.5775 128.478 74.5768V74.5768Z" fill="#6C63FF"/>
<path id="Vector_32" d="M144.938 74.5768C144.5 74.5775 144.071 74.4315 143.706 74.1574C143.341 73.8832 143.056 73.4933 142.888 73.0368C142.72 72.5804 142.677 72.0781 142.762 71.5936C142.848 71.1091 143.06 70.6641 143.37 70.3151L150.974 61.7515C151.212 61.4826 151.346 61.1183 151.346 60.7385C151.346 60.3586 151.212 59.9943 150.974 59.7254L143.329 51.115C143.117 50.8769 142.949 50.5942 142.835 50.2831C142.721 49.972 142.662 49.6386 142.662 49.3018C142.662 48.9651 142.721 48.6316 142.835 48.3205C142.949 48.0094 143.117 47.7267 143.329 47.4886C143.755 47.0112 144.331 46.7422 144.931 46.7401C145.532 46.7379 146.11 47.0028 146.538 47.4772L156.827 58.9194C157.03 59.145 157.191 59.4136 157.301 59.7098C157.41 60.006 157.467 60.3238 157.467 60.6448C157.467 60.9658 157.41 61.2836 157.301 61.5797C157.191 61.8759 157.03 62.1446 156.827 62.3701L146.497 73.8587C146.082 74.3201 145.522 74.5782 144.938 74.5768Z" fill="#6C63FF"/>
</g>
</svg>
