<svg width="80" height="59" viewBox="0 0 80 59" fill="none" xmlns="http://www.w3.org/2000/svg">
<g id="Collage">
<path id="path7442" d="M39.5833 0L0 20.8333L39.5833 41.6666L62.5 30.0781C62.5 30.0781 62.5 40.5816 62.5 45.8333C62.5 54.1667 70.8333 54.1667 70.8333 54.1667V50C70.8333 50 66.6667 49.7618 66.6667 45.8333C66.6667 39.5834 66.6667 27.7343 66.6667 27.7343L79.1667 20.8333L39.5833 0ZM20.8333 37.4999V45.8333C20.8333 47.903 22.1879 50.677 25 52.0833L39.5833 58.3333L52.0833 52.0833C54.8955 50.677 58.5297 47.8936 58.3333 45.8333V37.4999L39.5833 46.6145L20.8333 37.4999Z" fill="black"/>
</g>
</svg>
