<svg width="86" height="91" viewBox="0 0 86 91" fill="none" xmlns="http://www.w3.org/2000/svg">
<path d="M85.9375 0.5H0.9375L8.4375 81.0263L43.4375 90.5L78.4375 81.0263L85.9375 0.5Z" fill="#0277BD"/>
<path d="M43.4375 7.60526V83.1579L71.4375 75.5789L77.6875 7.60526H43.4375Z" fill="#039BE5"/>
<path d="M66.1875 19.4474H43.4375V28.9211H55.6875L54.9375 38.3947H43.4375V47.8684H54.4375L53.6875 58.5263L43.4375 61.8421V71.7895L63.1875 65.6316L64.9375 38.3947L66.1875 19.4474Z" fill="white"/>
<path d="M43.4375 19.4474V28.9211H21.1875L20.4375 19.4474H43.4375ZM31.9375 38.3947L32.4375 47.8684H43.4375V38.3947H31.9375ZM32.9375 52.6053H22.9375L23.6875 65.6316L43.4375 71.7895V61.8421L33.1875 58.5263L32.9375 52.6053Z" fill="#EEEEEE"/>
</svg>
