<svg width="86" height="91" viewBox="0 0 86 91" fill="none" xmlns="http://www.w3.org/2000/svg">
<path d="M84.1272 41.1667L47.6666 2.5614C46.5482 1.37719 44.9824 0.666664 43.4166 0.666664C41.8508 0.666664 40.285 1.37719 39.1666 2.5614L31.3377 10.8509L40.5087 20.5614C41.4035 20.0877 42.2982 19.8509 43.4166 19.8509C47.2193 19.8509 50.1272 22.9298 50.1272 26.9561C50.1272 28.1403 49.9035 29.0877 49.4561 30.0351L58.4035 39.5088C59.2982 39.0351 60.1929 38.7982 61.3114 38.7982C65.114 38.7982 68.0219 41.8772 68.0219 45.9035C68.0219 49.9298 65.114 53.0088 61.3114 53.0088C57.5087 53.0088 54.6008 49.9298 54.6008 45.9035C54.6008 44.7193 54.8245 43.7719 55.2719 42.8246L46.3245 33.3509C46.1008 33.3509 45.8772 33.5877 45.6535 33.5877V58.2193C48.3377 59.1667 50.1272 61.7719 50.1272 64.8509C50.1272 68.8772 47.2193 71.9561 43.4166 71.9561C39.614 71.9561 36.7061 68.8772 36.7061 64.8509C36.7061 61.7719 38.4956 59.1667 41.1798 58.2193V33.3509C38.4956 32.4035 36.7061 29.7982 36.7061 26.7193C36.7061 25.5351 36.9298 24.5877 37.3772 23.6403L28.2061 13.9298L2.7061 41.1667C1.58768 42.3509 0.916626 44.0088 0.916626 45.6667C0.916626 47.3246 1.58768 48.9825 2.7061 50.1667L39.1666 88.7719C40.285 89.9561 41.8508 90.6667 43.4166 90.6667C44.9824 90.6667 46.5482 89.9561 47.6666 88.7719L84.1272 50.1667C85.2456 48.9825 85.9166 47.3246 85.9166 45.6667C85.9166 44.0088 85.2456 42.3509 84.1272 41.1667Z" fill="#F4511E"/>
</svg>
