<svg width="86" height="90" viewBox="0 0 86 90" fill="none" xmlns="http://www.w3.org/2000/svg">
<path d="M8.35227 80.8594L0.625 0H85.625L77.8977 80.8594L43.0308 90" fill="#E34F26"/>
<path d="M43.2192 82.9688L71.3013 75.7617L77.8977 6.50391H43.2192" fill="#EF652A"/>
<path d="M43.2192 36.5625H29.084L28.1416 26.3672H43.2192V16.5234H43.0308H16.4565L16.645 19.1602L19.2835 46.582H43.2192V36.5625ZM43.2192 62.4023H43.0308L31.1571 59.4141L30.4033 51.5039H24.7492H19.8489L21.1682 67.1484L43.0308 72.7734H43.2192V62.4023Z" fill="#EBEBEB"/>
<path d="M43.0308 36.5625V46.582H56.2237L54.9044 59.4141L43.0308 62.4023V72.7734L64.8933 67.1484L65.0818 65.3906L67.5319 39.1992L67.9088 36.5625H64.8933H43.0308ZM43.0308 16.5234V22.6758V26.3672H68.8512L69.0396 24.2578L69.605 19.1602L69.7935 16.5234H43.0308Z" fill="white"/>
</svg>
