<svg width="122" height="123" viewBox="0 0 122 123" fill="none" xmlns="http://www.w3.org/2000/svg">
<g id="Job">
<path id="Vector" d="M53.613 0C68.403 0 81.815 6.018 91.531 15.694C101.246 25.41 107.224 38.783 107.224 53.612C107.224 64.429 103.999 74.538 98.492 82.955L121.699 108.247L105.691 122.879L83.311 98.256C74.813 103.92 64.586 107.225 53.613 107.225C38.823 107.225 25.41 101.206 15.695 91.531C5.979 81.814 0 68.44 0 53.612C0 38.822 6.018 25.41 15.695 15.694C25.41 5.979 38.784 0 53.613 0ZM37.534 33.9C45.347 25.278 54.368 20.595 61.131 28.261C62.904 28.345 64.49 28.932 65.815 30.182C68.596 32.797 69.028 37.69 67.756 41.576V44.968C68.617 45.535 69.174 46.596 69.426 47.803C69.594 48.58 69.637 49.441 69.551 50.26C69.469 51.111 69.258 51.919 68.922 52.592C68.44 53.548 67.703 54.219 66.707 54.366C65.728 55.406 64.773 56.519 63.924 57.59C62.988 58.766 62.19 59.879 61.635 60.793C61.203 61.497 61.34 61.959 61.498 62.484C61.57 62.746 61.654 63.019 61.707 63.313C63.42 63.68 64.963 63.974 66.35 64.237C75.161 65.885 80.36 66.4 80.36 77.868C80.36 78.456 79.887 78.929 79.299 78.929H30.697C30.109 78.929 29.636 78.456 29.636 77.868C29.636 66.4 34.825 65.886 43.646 64.237C45.043 63.974 46.607 63.68 48.319 63.313C48.382 63.082 48.456 62.872 48.529 62.662C48.707 62.158 48.886 61.654 48.361 60.804C47.804 59.89 47.006 58.778 46.072 57.601C45.221 56.53 44.265 55.417 43.289 54.377C42.291 54.231 41.556 53.558 41.073 52.603C40.737 51.941 40.527 51.122 40.443 50.272C40.369 49.453 40.411 48.592 40.569 47.814C40.821 46.606 41.367 45.556 42.217 44.989L41.072 44.306C40.768 40.914 41.66 35.023 37.522 33.91L37.534 33.9ZM87.283 19.942C78.668 11.328 66.75 5.979 53.613 5.979C40.475 5.979 28.557 11.329 19.943 19.942C11.329 28.556 5.979 40.474 5.979 53.612C5.979 66.75 11.329 78.668 19.943 87.282C28.557 95.896 40.475 101.246 53.613 101.246C66.75 101.246 78.668 95.896 87.283 87.282C95.896 78.668 101.246 66.75 101.246 53.612C101.246 40.474 95.896 28.556 87.283 19.942Z" fill="black"/>
</g>
</svg>
