<svg width="86" height="91" viewBox="0 0 86 91" fill="none" xmlns="http://www.w3.org/2000/svg">
<path d="M19.112 14.1423C14.2513 21.8849 14.8567 31.9573 18.5599 40.1745L18.8323 40.7602L19.0163 41.1306C19.0503 41.2027 19.0899 41.2738 19.1248 41.3439C19.1892 41.4741 19.2537 41.5992 19.3089 41.7274L19.6631 42.4012L19.8655 42.7717L20.2767 43.4845L20.4608 43.7849C20.6448 44.1053 20.8527 44.4237 21.057 44.7381C21.0616 44.7461 21.068 44.7551 21.0735 44.7631C21.1057 44.8132 21.1416 44.8632 21.1655 44.9133C21.3422 45.1836 21.5335 45.45 21.7175 45.7143L21.9218 46.0026L22.4232 46.6855L22.6146 46.9398C22.8427 47.2395 23.0758 47.5346 23.3138 47.8249L23.3286 47.8409C23.3378 47.8539 23.347 47.8609 23.3562 47.874C23.5868 48.1571 23.8236 48.4342 24.0664 48.705L24.2946 48.9593L24.8623 49.576L25.0941 49.8204C25.3493 50.0864 25.6084 50.3477 25.8716 50.6043L26.0188 50.7445L26.7245 51.4053L27.017 51.6636L27.6059 52.1642L27.9205 52.4296L28.8203 53.1455C28.8433 53.1625 28.8636 53.1805 28.8866 53.1975C29.0982 53.3577 29.3126 53.5129 29.5279 53.6681L29.8057 53.8734L30.8104 54.5542L31.0883 54.7274L31.8427 55.196C31.9807 55.2781 32.1215 55.3562 32.2595 55.4343L32.7986 55.7346L32.9228 55.8007L33.1437 55.9189L33.9993 56.3574L34.1806 56.4575C34.5105 56.6172 34.843 56.7704 35.1779 56.9171L35.4208 57.0232L36.362 57.4097L36.4798 57.4558C36.8273 57.5892 37.177 57.716 37.5286 57.8362L37.7816 57.9203C38.1497 58.0405 38.4947 58.1837 38.8645 58.2608C62.37 63.0226 69.1995 42.6155 69.1995 42.6155C63.4648 50.8957 53.2863 53.0784 43.6424 50.6484C43.2771 50.5483 42.9229 50.4311 42.5659 50.314L42.2972 50.2138C41.9495 50.0957 41.6035 49.9705 41.2613 49.8404L41.1187 49.7833C40.8124 49.6632 40.5078 49.538 40.205 49.4078L39.9474 49.2957C39.6161 49.1508 39.2873 48.9992 38.9611 48.8411L38.7642 48.745L37.9325 48.3145L37.6933 48.1863C37.4772 48.0682 37.2625 47.947 37.0493 47.8229L36.6196 47.5726C36.36 47.4177 36.103 47.2579 35.8486 47.093L35.5882 46.9328C35.2497 46.7125 34.9148 46.4822 34.5835 46.2519C34.4915 46.1869 34.4032 46.1178 34.3121 46.0517L33.5972 45.5251L33.3672 45.3448L32.691 44.8042L32.3911 44.5539L31.7811 44.0252L31.5087 43.7849L30.7497 43.084C30.7239 43.059 30.6945 43.034 30.6577 43.0069C30.3872 42.7436 30.1213 42.4733 29.8591 42.202L29.6346 41.9617L29.0605 41.3389L28.836 41.0886C28.5969 40.8182 28.3622 40.5431 28.1321 40.2636C28.1211 40.2495 28.1082 40.2365 28.0972 40.2235C27.854 39.9281 27.616 39.6276 27.3832 39.3224L27.1964 39.0761L26.6812 38.3722L26.4926 38.1119L25.8992 37.2358C20.5445 29.1408 18.6308 17.9771 22.8998 8.80777L19.112 14.1423ZM34.2008 7.6183C30.6862 13.2252 30.8767 20.7285 33.6184 26.6578C34.077 27.6534 34.5965 28.6144 35.1733 29.5343C35.6996 30.3704 36.2838 31.3666 36.983 32.0374C37.236 32.3378 37.501 32.6382 37.7715 32.9445C37.8396 33.0216 37.9095 33.0947 37.9794 33.1718C38.242 33.4554 38.5107 33.7322 38.7854 34.0018C38.7965 34.0119 38.8066 34.0239 38.8185 34.0339C39.1278 34.333 39.4441 34.6235 39.7671 34.905L39.9806 35.0892C40.3022 35.3643 40.6304 35.63 40.965 35.8862C40.974 35.8942 40.9832 35.9018 40.9926 35.9092C41.1398 36.0223 41.2916 36.1295 41.4416 36.2376C41.5134 36.2897 41.5814 36.3447 41.6532 36.3938C41.8931 36.5647 42.1364 36.7299 42.3828 36.8894L42.4859 36.9555L43.1299 37.356C43.2053 37.403 43.2826 37.4441 43.3599 37.4881L43.8199 37.7465C43.8429 37.7595 43.8659 37.7695 43.888 37.7815C44.1981 37.9517 44.51 38.1119 44.8292 38.2671C44.8973 38.3001 44.9672 38.3302 45.0372 38.3622C45.292 38.4824 45.5496 38.5985 45.81 38.7096L46.1412 38.8438C46.376 38.9389 46.6122 39.03 46.8497 39.1171L47.1698 39.2303C47.5075 39.3474 47.8415 39.4936 48.1938 39.5587C66.3418 42.8908 70.5327 27.4037 70.5327 27.4037C66.7559 33.4311 59.4424 36.3087 51.6367 34.0639C51.2914 33.9641 50.9487 33.8539 50.609 33.7335C50.505 33.6985 50.4029 33.6614 50.2998 33.6334C50.0588 33.5468 49.8192 33.4553 49.5813 33.359L49.2565 33.2249C48.9961 33.1248 48.7385 32.9996 48.4837 32.8795C48.4137 32.8464 48.3438 32.8164 48.2748 32.7813C47.9546 32.6289 47.6386 32.4663 47.3272 32.2937C47.1671 32.2066 47.0097 32.1155 46.8524 32.0254L46.5782 31.8692C46.3758 31.7482 46.1755 31.623 45.9774 31.4937L45.8339 31.3936C45.5889 31.2343 45.3466 31.07 45.1071 30.901C45.0335 30.849 44.9617 30.8009 44.8881 30.7388L44.417 30.3934C44.0843 30.137 43.7572 29.872 43.4363 29.5984L43.2155 29.4062C39.7993 26.4165 37.0907 22.3314 35.8035 17.6987C34.4538 12.8928 34.7455 7.50115 37.0916 3.12476L34.2008 7.6183ZM46.8883 2.74429C44.8163 6.12446 44.613 10.3216 46.0602 14.0542C47.5765 18.0161 50.6835 21.125 54.3094 22.5978C54.4585 22.6599 54.6084 22.7149 54.7694 22.771L54.9682 22.8411C55.1816 22.9152 55.3942 23.0013 55.6141 23.0473C65.6352 25.193 68.3531 17.3483 69.0762 16.1939C66.6951 19.9936 62.6938 20.9057 57.7845 19.5851C57.398 19.4799 56.9702 19.3247 56.5884 19.1786C56.108 18.9894 55.6371 18.7725 55.178 18.5288C54.3042 18.0625 53.4757 17.502 52.7049 16.8557C48.3024 13.1611 45.5726 6.11444 48.4395 0.375366" fill="#0868AC"/>
<path d="M24.7574 74.4968L24.0784 77.116L24.7574 74.4978V74.4968ZM28.2499 80.1818L27.5019 80.1768L28.2499 80.1818ZM28.0659 84.0926L23.5834 84.1106L28.0659 84.0926ZM29.0043 80.1878L28.2554 80.1828L29.0043 80.1878ZM28.4689 83.7602L29.2509 80.5192L28.4689 83.7602ZM44.9654 68.8348L43.5117 76.277L44.9654 68.8348ZM41.2254 68.8348L40.1213 74.3947L41.2254 68.8348Z" fill="#131B28"/>
<path d="M44.7078 68.4994H41.598C41.425 68.4994 41.2539 68.6496 41.2171 68.8338L39.009 79.9545C38.9722 80.1377 38.8011 80.2879 38.629 80.2879H36.4273C34.2486 80.2879 34.5007 78.6489 34.9552 76.4031L34.969 76.3351L35.2331 74.8032L35.3472 74.1724L36.3519 68.8338C36.3868 68.6496 36.2737 68.4984 36.1007 68.4984H32.9081C32.8201 68.5017 32.7355 68.5361 32.6671 68.5965C32.5987 68.6568 32.5502 68.7398 32.5291 68.8328L31.091 76.256C30.2998 80.1848 30.5096 83.9314 34.808 84.0486L34.9322 84.0516H41.6781C41.851 84.0516 42.0212 83.9014 42.058 83.7172L44.9672 68.8328C45.004 68.6486 44.8909 68.4984 44.7188 68.4984L44.7078 68.4994ZM57.1165 80.327C57.2895 80.327 57.3925 80.4772 57.3677 80.6614L57.0659 82.2684L57.1165 80.327ZM56.7641 83.8764L57.0659 82.2684L56.7641 83.8764ZM56.3851 84.2148L50.6532 84.2448L56.3851 84.2148Z" fill="#131B28"/>
<path d="M48.7965 78.2584C48.7937 78.0822 48.9777 77.7798 49.1507 77.7798L48.7624 77.7728C48.5784 79.6892 48.7965 78.2584 48.7965 78.2584ZM50.9365 84.2438H50.8767H50.9365ZM57.1165 80.327C57.2895 80.327 57.3925 80.4772 57.3677 80.6614L57.0162 82.5297L57.1165 80.327ZM52.4086 84.2488H52.3957H52.4086ZM51.645 84.2428H51.6008H51.645ZM51.4122 84.2438H51.3386H51.4122ZM51.1849 84.2438H51.1205H51.1849ZM51.61 84.2428H51.4214H51.61Z" fill="#131B28"/>
<path d="M52.3967 84.2488L51.6459 84.2518L52.3967 84.2488ZM56.3869 84.2238L52.4077 84.2498L56.3869 84.2238ZM56.7549 83.8764L57.008 82.5307L56.7549 83.8774V83.8764ZM51.3303 84.2438H51.185H51.3487H51.3303ZM50.8749 84.2438H50.6541H50.8749ZM51.1114 84.2438H50.9273H51.1114ZM5.60565 78.2985L6.08868 75.9676L5.53665 78.6309L5.47224 78.9653L5.60657 78.2965L5.60565 78.2985ZM11.3891 68.4613H7.97294C7.88467 68.4651 7.79982 68.4995 7.73079 68.5595C7.66177 68.6195 7.61218 68.7019 7.58928 68.7948L6.94156 71.8986C6.93068 71.9388 6.92886 71.9812 6.93627 72.0223C6.94367 72.0634 6.96008 72.102 6.98411 72.1347C7.00813 72.1674 7.03905 72.1933 7.07425 72.2103C7.10945 72.2272 7.14789 72.2347 7.1863 72.232H10.6291C10.8021 72.232 10.9732 72.0818 11.01 71.8986L11.6357 68.7877C11.6725 68.6045 11.5621 68.4543 11.3872 68.4543L11.3891 68.4613ZM10.6457 73.6357L9.63363 78.6799L10.6457 73.6357ZM0.72202 90.3513L3.53922 90.3754C2.70749 90.3754 1.33385 90.3583 0.7211 90.3503L0.72202 90.3513Z" fill="#131B28"/>
<path d="M6.56248 73.6357L6.07853 75.9666L6.56248 73.6357ZM10.3991 73.3023H6.95534C6.86707 73.3061 6.78223 73.3405 6.7132 73.4005C6.64417 73.4604 6.59458 73.5429 6.57168 73.6357L5.60563 78.2975L5.4713 78.9663L4.55125 83.7252C4.50567 83.9472 4.4504 84.1667 4.38564 84.383C4.38564 84.383 3.74161 86.4655 2.66147 86.4425L1.58961 86.4205C1.50169 86.4232 1.41684 86.4563 1.34736 86.5149C1.27789 86.5736 1.22739 86.6549 1.20319 86.7469L0.490146 90.0139C0.478881 90.0539 0.476613 90.0962 0.483535 90.1373C0.490456 90.1783 0.506364 90.217 0.529913 90.25C0.553463 90.283 0.583963 90.3093 0.618837 90.3268C0.653711 90.3443 0.691935 90.3523 0.730279 90.3503L3.54839 90.3754C6.24966 90.3754 7.67298 88.7464 8.58659 84.0606L10.6567 73.6477C10.6935 73.4645 10.5813 73.3143 10.4083 73.3143L10.3991 73.3023ZM59.3108 84.0536C59.1379 84.0536 59.0348 83.9034 59.0624 83.7192L61.6524 70.5169L59.3108 84.0536ZM62.9101 83.7182L63.9589 78.0832L62.9101 83.7182Z" fill="#131B28"/>
<path d="M59.1001 83.8864C59.079 83.7943 59.0909 83.569 59.1277 83.3857L60.3569 77.118L59.0615 83.7192C59.0247 83.9034 59.1369 84.0536 59.3099 84.0536H59.6246C59.4516 84.0536 59.1204 83.9785 59.1001 83.8864ZM62.7067 83.9785C62.6129 84.0185 62.3939 84.0536 62.2209 84.0536H62.5356C62.6234 84.0498 62.7077 84.015 62.7758 83.9545C62.8438 83.894 62.8919 83.811 62.9128 83.7182L62.9754 83.3837C62.9413 83.568 62.7914 83.9374 62.6994 83.9785H62.7067ZM63.4336 80.9007L63.8964 78.4136L63.4336 80.9007ZM73.6535 71.401L73.7961 72.0418C73.8357 72.225 73.7262 72.3742 73.5541 72.3752" fill="#131B28"/>
<path d="M62.9726 83.3837L63.4327 80.9007L62.9726 83.3837ZM73.5127 70.7321L73.6535 71.3889L73.5127 70.7321ZM63.8964 78.4136L64.0233 77.7488L64.5174 75.2307L63.958 78.0822L63.8964 78.4126V78.4136ZM61.6947 70.2996L61.587 70.8503L60.3578 77.118L61.6533 70.5169L61.6947 70.3006V70.2996Z" fill="#131B28"/>
<path d="M73.797 72.0418L73.6544 71.401L73.4428 70.3997C73.1631 69.2183 72.3424 68.5344 70.5594 68.5344L62.3525 68.5284C62.2645 68.5317 62.1799 68.5661 62.1115 68.6265C62.0431 68.6868 61.9946 68.7698 61.9735 68.8628L61.8465 69.5166L61.6625 70.5049L59.1379 83.3737C59.1011 83.558 59.0891 83.7742 59.1103 83.8744C59.1314 83.9745 59.4626 84.0416 59.6347 84.0416H62.2292C62.4022 84.0416 62.6202 84.0075 62.715 83.9665C62.8098 83.9254 62.9487 83.566 62.991 83.3717L63.9755 78.0712L65.0289 72.7006C65.0657 72.5173 65.236 72.3682 65.408 72.3672L73.5716 72.3632C73.7437 72.3632 73.8531 72.213 73.8136 72.0297L73.797 72.0418ZM84.3068 66.2416L83.6784 66.2446H81.0654C80.9698 66.2508 80.8764 66.2792 80.7917 66.3279C80.7069 66.3766 80.6328 66.4445 80.5741 66.527L74.7962 75.7383C74.6987 75.8935 74.5873 75.8705 74.5478 75.6883L74.1227 73.6588C74.0998 73.5659 74.0502 73.4835 73.9812 73.4235C73.9122 73.3635 73.8273 73.3291 73.7391 73.3253H70.0248C69.8518 73.3253 69.7488 73.4725 69.7966 73.6537L71.4527 79.9996C71.5006 80.1798 71.5033 80.4772 71.4619 80.6604L70.7259 83.7312C70.7134 83.7706 70.71 83.8127 70.7163 83.8538C70.7225 83.895 70.7381 83.9337 70.7615 83.9667C70.785 83.9996 70.8157 84.0256 70.8508 84.0423C70.8858 84.0591 70.9242 84.066 70.9623 84.0626H74.6425C74.8155 84.0626 74.9922 83.9124 75.0345 83.7322L75.7705 80.6614C75.8282 80.4452 75.9184 80.2408 76.0373 80.0566L85.4274 66.5069C85.5313 66.3567 85.4752 66.2346 85.3023 66.2366L84.3178 66.2436L84.3068 66.2416ZM54.7952 74.1884C54.7731 74.3887 54.6002 74.5388 54.4272 74.5388H49.7165C49.5537 74.5388 49.4709 74.4187 49.4957 74.2685L49.4994 74.2415L49.5206 74.1544C49.9806 72.8528 50.8868 71.9987 52.6083 71.9987C54.5468 71.9987 54.9249 73.03 54.7934 74.1884H54.7952ZM53.4133 68.2731C47.3686 68.2731 45.936 72.266 45.1328 76.296C44.3287 80.4041 44.3986 84.2458 50.6531 84.2458H51.645L52.4086 84.2428L56.3887 84.2168C56.4761 84.2124 56.5597 84.1773 56.6272 84.1169C56.6947 84.0564 56.7424 83.9738 56.7632 83.8814L57.3677 80.6654C57.4026 80.4812 57.2895 80.331 57.1165 80.331H51.4932C49.2574 80.331 48.5922 79.6842 48.837 77.7828H57.8259C57.9731 77.7798 58.1065 77.6827 58.1589 77.5305C58.1681 77.5035 58.1773 77.4745 58.181 77.4454C59.5151 71.9687 59.1323 68.2771 53.4151 68.2771L53.4133 68.2731ZM24.842 74.1664L24.7574 74.4938C24.7574 74.4948 24.0784 77.113 24.0784 77.113L23.3994 79.7302C23.3712 79.8225 23.3179 79.9033 23.2466 79.9619C23.1753 80.0206 23.0894 80.0543 23.0001 80.0586H19.4064C16.6812 80.0586 16.0178 77.7388 16.6812 74.3176C17.3436 70.8182 18.6455 68.6426 21.3274 68.4223C24.9929 68.1219 25.7253 70.9274 24.842 74.1654V74.1664ZM27.3059 79.8584C27.3059 79.8584 28.9988 75.3829 29.3853 72.7967C29.9097 69.3354 28.318 64.3162 22.1675 64.3162C16.0519 64.3162 13.3966 69.1081 12.3836 74.3286C11.3716 79.575 12.6983 84.1767 18.778 84.1407L28.0576 84.1036C28.1466 84.099 28.2321 84.0646 28.3024 84.0051C28.3727 83.9456 28.4244 83.8639 28.4505 83.7712L29.2325 80.5292C29.2452 80.49 29.2486 80.4479 29.2426 80.4068C29.2365 80.3657 29.2212 80.3269 29.1979 80.2939C29.1746 80.2609 29.1441 80.2348 29.1092 80.2178C29.0743 80.2009 29.036 80.1936 28.9979 80.1968L27.501 80.1868C27.3538 80.1858 27.271 80.0827 27.2875 79.9465C27.2912 79.9215 27.2967 79.8964 27.3059 79.8704V79.8584Z" fill="#131B28"/>
<path d="M57.5793 76.8637C57.5793 76.9879 57.4873 77.088 57.3732 77.088C57.2591 77.088 57.1671 76.9879 57.1671 76.8637C57.1671 76.7395 57.2591 76.6394 57.3732 76.6394C57.4873 76.6394 57.5793 76.7395 57.5793 76.8637Z" fill="#131B28"/>
</svg>
