<svg width="85" height="90" viewBox="0 0 85 90" fill="none" xmlns="http://www.w3.org/2000/svg">
<path d="M0 90V0H85V90H0Z" fill="#FFD600"/>
<path d="M55.5758 67.3675C57.2097 70.1775 58.9853 72.87 62.7465 72.87C65.9057 72.87 67.5632 71.2075 67.5632 68.9075C67.5632 66.155 65.849 65.1775 62.3735 63.575L60.4681 62.715C54.969 60.245 51.3117 57.15 51.3117 50.6125C51.3117 44.5875 55.6679 40.0025 62.475 40.0025C67.3224 40.0025 70.805 41.78 73.3172 46.435L67.3814 50.4525C66.0757 47.9825 64.6638 47.01 62.475 47.01C60.2414 47.01 58.8271 48.5025 58.8271 50.4525C58.8271 52.8625 60.2438 53.8375 63.5139 55.33L65.4193 56.19C71.9006 59.1125 75.5556 62.0975 75.5556 68.8075C75.5556 76.0375 70.1628 80 62.9236 80C55.8427 80 51.8217 76.2375 49.5833 71.58L55.5758 67.3675ZM28.22 67.5725C29.4147 69.8375 31.2304 71.58 33.8418 71.58C36.3399 71.58 37.7778 70.535 37.7778 66.4725V40H45.6474V67.7525C45.6474 76.17 41.0361 80 34.3022 80C28.2176 80 23.826 75.635 22.0363 71.58L28.22 67.5725Z" fill="#000001"/>
</svg>
