<svg width="85" height="90" viewBox="0 0 85 90" fill="none" xmlns="http://www.w3.org/2000/svg">
<path d="M42.428 66.9939C61.2332 94.1373 79.6367 59.4177 79.6095 38.5383C79.578 13.853 55.9473 0.0562439 42.4127 0.0562439C20.6885 0.0558923 0 19.066 0 45.076C0 73.9865 23.7153 90.0002 42.4127 90.0002C38.1816 89.355 24.0812 86.1562 23.892 51.7687C23.7641 28.5114 31.0572 19.2192 42.3821 23.3069C42.6358 23.4064 54.8738 28.5181 54.8738 45.2163C54.8738 61.8438 42.428 66.9935 42.428 66.9935V66.9939Z" fill="url(#paint0_linear)"/>
<path d="M42.406 23.2879C29.98 18.7531 14.7581 29.597 14.7581 51.3166C14.7581 86.7812 39.5784 90.0001 42.5873 90.0001C64.3114 90.0001 85 70.9897 85 44.98C85 16.0696 61.2846 0.0559129 42.5873 0.0559129C47.766 -0.703463 70.4995 5.99029 70.4995 38.8889C70.4995 60.3433 53.5247 72.023 42.484 67.0329C42.2303 66.9334 29.992 61.8217 29.992 45.1235C29.992 28.4956 42.406 23.2879 42.406 23.2879V23.2879Z" fill="url(#paint1_linear)"/>
<defs>
<linearGradient id="paint0_linear" x1="12.5711" y1="13.3113" x2="79.1999" y2="68.5784" gradientUnits="userSpaceOnUse">
<stop/>
<stop offset="1" stop-color="white"/>
</linearGradient>
<linearGradient id="paint1_linear" x1="72.4519" y1="76.7134" x2="1.28344" y2="30.8132" gradientUnits="userSpaceOnUse">
<stop/>
<stop offset="1" stop-color="white"/>
</linearGradient>
</defs>
</svg>
