<svg width="86" height="91" viewBox="0 0 86 91" fill="none" xmlns="http://www.w3.org/2000/svg">
<path d="M43.2292 67.0188C19.3922 67.0188 0.729187 57.3953 0.729187 45.147C0.729187 32.8988 19.3922 23.2753 43.2292 23.2753C67.0661 23.2753 85.7292 32.8988 85.7292 45.147C85.7292 57.3953 67.0661 67.0188 43.2292 67.0188ZM43.2292 27.6496C19.9466 27.6496 4.42484 36.6171 4.42484 45.147C4.42484 53.677 19.9466 62.6445 43.2292 62.6445C66.5118 62.6445 82.0335 53.677 82.0335 45.147C82.0335 36.6171 66.5118 27.6496 43.2292 27.6496Z" fill="#80DEEA"/>
<path d="M26.7836 90.2029C24.9357 90.2029 23.4575 89.7655 21.9792 88.6719C12.9249 82.5478 15.327 58.7076 27.1531 34.2112C32.6966 22.8378 39.5336 13.2142 46.1857 7.09014C53.3922 0.528602 59.8596 -1.43986 64.2944 1.62219C68.914 4.68424 70.577 12.3394 69.4683 23.0565C68.3596 33.1176 64.664 44.9283 59.1205 56.3017C53.577 67.675 46.7401 77.2986 40.0879 83.4227C35.2836 87.797 30.664 90.2029 26.7836 90.2029ZM59.6749 4.46552C56.7183 4.46552 52.8379 6.43399 48.5879 10.3709C42.3053 16.2763 35.8379 25.4624 30.4792 36.3983C18.8379 60.2386 17.7292 80.7981 23.827 84.9537C26.9683 87.1409 32.1423 85.1724 37.8705 79.9232C44.1531 74.0178 50.6205 64.8317 55.9792 53.8958C61.3379 42.9599 64.8488 31.8053 65.9575 22.4004C66.8814 13.6517 65.7727 7.52758 62.6314 5.3404C61.7075 4.90296 60.7836 4.46552 59.6749 4.46552Z" fill="#80DEEA"/>
<path d="M59.8596 90.2029C50.6205 90.2029 37.3161 76.8612 27.3379 56.083C15.327 31.5866 12.9248 7.7463 21.9792 1.6222C31.0335 -4.5019 47.2944 9.71476 59.3053 34.2112C64.8487 45.5845 68.5444 57.3953 69.6531 67.4563C70.9466 78.1735 69.0987 85.6099 64.4792 88.8906C63.0009 89.7655 61.5226 90.2029 59.8596 90.2029ZM23.827 5.3404C17.7292 9.49604 18.8379 30.0555 30.4792 53.8958C42.1205 77.736 56.5335 89.1094 62.6313 84.9537C65.7726 82.7665 66.8813 76.6424 65.9574 67.8937C64.8487 58.4889 61.3379 47.3342 55.9792 36.3983C44.3379 12.5581 29.9248 1.18476 23.827 5.3404Z" fill="#80DEEA"/>
<path d="M43.2291 53.8958C47.3112 53.8958 50.6204 49.9788 50.6204 45.147C50.6204 40.3153 47.3112 36.3983 43.2291 36.3983C39.147 36.3983 35.8378 40.3153 35.8378 45.147C35.8378 49.9788 39.147 53.8958 43.2291 53.8958Z" fill="#80DEEA"/>
</svg>
