<svg width="86" height="90" viewBox="0 0 86 90" fill="none" xmlns="http://www.w3.org/2000/svg">
<path d="M41.2836 0C27.8792 0 16.9745 16.3591 16.9745 36.4649C16.9745 47.3425 20.1793 57.0972 25.2356 63.7736C25.1383 64.2529 25.0776 64.7457 25.0776 65.2565C25.0776 68.9851 27.7982 72.0072 31.1548 72.0072C34.5115 72.0072 37.2321 68.9851 37.2321 65.2565C37.2321 61.5279 34.5115 58.5059 31.1548 58.5059C30.5167 58.5059 29.9151 58.6454 29.3377 58.8479C25.4949 53.4001 23.0518 45.3983 23.0518 36.4649C23.0518 20.081 31.2298 6.75068 41.2836 6.75068C49.0564 6.75068 55.6887 14.7322 58.308 25.9181C60.5809 26.6967 62.8397 27.6778 65.0538 28.8614C62.7141 12.3942 52.9499 0 41.2836 0Z" fill="#7E57C2"/>
<path d="M66.6197 36.1926C58.6241 30.8101 49.6561 28.4473 41.942 29.5342C40.8278 28.0018 39.1424 27.0027 37.2321 27.0027C33.8754 27.0027 31.1548 30.0248 31.1548 33.7534C31.1548 37.482 33.8754 40.5041 37.2321 40.5041C39.8089 40.5041 41.9987 38.7151 42.8819 36.2016C49.1982 35.3488 56.6814 37.3965 63.4697 41.9689C76.4406 50.7021 83.0587 65.7516 78.2212 75.5221C76.5459 78.9064 73.5903 81.3096 69.6766 82.4753C65.0457 83.8501 59.5336 83.3618 54.0236 81.2871C52.324 83.0243 50.4805 84.658 48.5034 86.1656C53.6731 88.6791 59.0292 90 64.0389 90C66.5508 90 68.9777 89.6692 71.2486 88.9942C76.8012 87.3447 81.0552 83.8096 83.5469 78.7736C89.9341 65.8776 82.3396 46.7754 66.6197 36.1926Z" fill="#7E57C2"/>
<path d="M65.5927 56.2376C65.5927 52.5203 62.8721 49.5049 59.5154 49.5049C56.1587 49.5049 53.4381 52.5203 53.4381 56.2376C53.4381 57.743 53.9 59.1202 54.6536 60.2408C52.0627 66.5459 47.0692 72.7678 40.3477 77.293C32.5182 82.5675 23.7669 84.4982 16.9401 82.473C13.0264 81.3074 10.0708 78.9041 8.39549 75.5198C4.94766 68.5576 7.34007 58.9221 13.6827 50.7943C13.0284 48.2201 12.5442 45.5288 12.2525 42.7498C1.98195 53.5441 -2.14856 68.2291 3.07181 78.7736C5.56349 83.8096 9.81757 87.3447 15.3702 88.9942C17.641 89.6692 20.0659 90 22.5798 90C29.358 90 36.7743 87.5968 43.4978 83.0693C51.2686 77.8375 57.0359 70.5198 60.1272 62.9028C63.1921 62.5585 65.5927 59.7232 65.5927 56.2376Z" fill="#7E57C2"/>
</svg>
