<svg width="85" height="90" viewBox="0 0 85 90" fill="none" xmlns="http://www.w3.org/2000/svg">
<path d="M42.5 90C65.9721 90 85 69.8528 85 45C85 20.1472 65.9721 0 42.5 0C19.0279 0 0 20.1472 0 45C0 69.8528 19.0279 90 42.5 90Z" fill="#FAD24D"/>
<path d="M8.19441 20.747H69.7068C71.7277 20.747 73.3812 22.4976 73.3812 24.6376V64.7591H4.52014V24.6376C4.52014 22.4978 6.1735 20.747 8.19441 20.747Z" fill="#666666"/>
<path d="M7.01501 62.1171H70.8863V24.6376C70.8863 23.9563 70.3506 23.389 69.7071 23.389H8.19473C7.55125 23.389 7.01551 23.9563 7.01551 24.6376V62.1171H7.01501Z" fill="white"/>
<path d="M8.33704 28.7358H69.5647V43.743H8.33704V28.7358Z" fill="#ECF0F1"/>
<path d="M1.17579 64.7591H76.7258V67.006C76.7258 68.2415 75.7707 69.2528 74.6038 69.2528H3.29731C2.13038 69.2528 1.17529 68.2415 1.17529 67.006V64.7591H1.17579Z" fill="#B6B6B8"/>
<path d="M31.4101 65.5802H46.4911L44.8756 66.7163H33.0253L31.4098 65.5802H31.4101Z" fill="#919191"/>
<path d="M54.9727 34.8744H77.5665C78.283 34.8744 78.8637 35.4893 78.8637 36.248V67.8791C78.8637 68.6378 78.283 69.2526 77.5665 69.2526H54.9727C54.2561 69.2526 53.6754 68.6378 53.6754 67.8791V36.248C53.6754 35.4893 54.2563 34.8744 54.9727 34.8744Z" fill="#666666"/>
<path d="M55.2525 37.3074H77.2868C77.37 37.3074 77.4374 37.3788 77.4374 37.4669V65.8746C77.4374 65.9627 77.37 66.0341 77.2868 66.0341H55.2525C55.1693 66.0341 55.1019 65.9627 55.1019 65.8746V37.467C55.1019 37.379 55.1693 37.3074 55.2525 37.3074Z" fill="white"/>
<path d="M66.27 68.4817C66.7372 68.4817 67.116 68.0806 67.116 67.5859C67.116 67.0911 66.7372 66.6901 66.27 66.6901C65.8027 66.6901 65.424 67.0911 65.424 67.5859C65.424 68.0806 65.8027 68.4817 66.27 68.4817Z" fill="#B6B6B8"/>
<path d="M56.2777 40.8658H76.2623V53.3375H56.2777V40.8658Z" fill="#ECF0F1"/>
<path d="M72.6983 47.1792H83.1658C83.5296 47.1792 83.8242 47.4914 83.8242 47.8763V68.5557C83.8242 68.9408 83.5294 69.2528 83.1658 69.2528H72.6983C72.3346 69.2528 72.0399 68.9406 72.0399 68.5557V47.8763C72.0399 47.4914 72.3346 47.1792 72.6983 47.1792Z" fill="#666666"/>
<path d="M73.1889 49.2453H82.6759C82.7118 49.2453 82.7409 49.2761 82.7409 49.314V67.1176C82.7409 67.1556 82.7118 67.1863 82.6759 67.1863H73.1889C73.1531 67.1863 73.124 67.1556 73.124 67.1176V49.3139C73.124 49.2761 73.1532 49.2453 73.1889 49.2453Z" fill="white"/>
<path d="M77.9331 68.7566C78.2619 68.7566 78.5284 68.4744 78.5284 68.1262C78.5284 67.7781 78.2619 67.4959 77.9331 67.4959C77.6043 67.4959 77.3378 67.7781 77.3378 68.1262C77.3378 68.4744 77.6043 68.7566 77.9331 68.7566Z" fill="#B6B6B8"/>
<path d="M76.3398 48.3168H79.5246C79.605 48.3168 79.6701 48.3857 79.6701 48.4708V48.4713C79.6701 48.5564 79.605 48.6253 79.5246 48.6253H76.3398C76.2594 48.6253 76.1943 48.5564 76.1943 48.4713V48.4708C76.1943 48.3857 76.2594 48.3168 76.3398 48.3168Z" fill="#B6B6B8"/>
<path d="M70.8865 27.5679H7.01501V24.6376C7.01501 23.9563 7.55075 23.389 8.19423 23.389H69.7066C70.3501 23.389 70.8858 23.9563 70.8858 24.6376V27.5677H70.8865V27.5679Z" fill="#21D0C3"/>
<path d="M34.2727 24.585H66.991C67.2323 24.585 67.4287 24.7935 67.4287 25.0484V25.9081C67.4287 26.1636 67.2318 26.3715 66.991 26.3715H34.2727C34.0315 26.3715 33.8351 26.163 33.8351 25.9081V25.0484C33.8351 24.7935 34.0318 24.585 34.2727 24.585Z" fill="white"/>
<path d="M9.73256 24.5532C10.2791 24.5532 10.7223 25.0222 10.7223 25.6012C10.7223 26.1803 10.2791 26.6492 9.73256 26.6492C9.18554 26.6492 8.74194 26.1803 8.74194 25.6012C8.74194 25.0222 9.18521 24.5532 9.73256 24.5532Z" fill="#ECF0F1"/>
<path d="M13.6399 24.5532C14.187 24.5532 14.6297 25.0222 14.6297 25.6012C14.6297 26.1803 14.1868 26.6492 13.6399 26.6492C13.0934 26.6492 12.6501 26.1803 12.6501 25.6012C12.6501 25.0222 13.0934 24.5532 13.6399 24.5532Z" fill="#ECF0F1"/>
<path d="M17.5485 24.5532C18.095 24.5532 18.5383 25.0222 18.5383 25.6012C18.5383 26.1803 18.095 26.6492 17.5485 26.6492C17.001 26.6492 16.5579 26.1803 16.5579 25.6012C16.5579 25.0222 17.001 24.5532 17.5485 24.5532Z" fill="#ECF0F1"/>
<path d="M15.1321 47.3636C16.7098 47.3636 17.9883 48.7173 17.9883 50.3877C17.9883 52.0576 16.7098 53.4119 15.1321 53.4119C13.555 53.4119 12.2765 52.0576 12.2765 50.3877C12.2765 48.7173 13.555 47.3636 15.1321 47.3636Z" fill="#FF5B62"/>
<path d="M29.8876 47.3636C31.4648 47.3636 32.7433 48.7173 32.7433 50.3877C32.7433 52.0576 31.4648 53.4119 29.8876 53.4119C28.3105 53.4119 27.032 52.0576 27.032 50.3877C27.032 48.7173 28.3105 47.3636 29.8876 47.3636Z" fill="#21D0C3"/>
<path d="M11.0345 54.7084H19.2308V55.1792H11.0345V54.7084V54.7084ZM11.0345 57.6668H16.5396V58.1376H11.0345V57.6668ZM11.0345 56.1878H19.2308V56.6582H11.0345V56.1878V56.1878Z" fill="#DCE3DB"/>
<path d="M25.7902 54.7084H33.9859V55.1792H25.7902V54.7084ZM25.7902 57.6668H31.2958V58.1376H25.7902V57.6668ZM25.7902 56.1878H33.9859V56.6582H25.7902V56.1878Z" fill="#DCE3DB"/>
<path d="M45.5505 47.3636C47.1276 47.3636 48.4061 48.7173 48.4061 50.3877C48.4061 52.0576 47.1276 53.4119 45.5505 53.4119C43.9733 53.4119 42.6948 52.0576 42.6948 50.3877C42.6947 48.7173 43.9731 47.3636 45.5505 47.3636Z" fill="#FAD24D"/>
<path d="M41.4531 54.7084H49.6488V55.1792H41.4531V54.7084ZM41.4531 57.6668H46.9587V58.1376H41.4531V57.6668ZM41.4531 56.1878H49.6488V56.6582H41.4531V56.1878Z" fill="#DCE3DB"/>
<path d="M60.2578 55.1342C61.2367 55.1342 62.0305 55.9748 62.0305 57.0112C62.0305 58.0476 61.2372 58.8882 60.2578 58.8882C59.279 58.8882 58.4851 58.0476 58.4851 57.0112C58.4851 55.9746 59.2787 55.1342 60.2578 55.1342Z" fill="#FF5B62"/>
<path d="M57.7141 59.6933H62.8012V60.0742H57.7141V59.6933ZM57.7141 62.0867H61.1312V62.4676H57.7141V62.0867V62.0867ZM57.7141 60.8896H62.8012V61.2706H57.7141V60.8896Z" fill="#DCE3DB"/>
<path d="M67.177 55.1342C68.1558 55.1342 68.9497 55.9748 68.9497 57.0112C68.9497 58.0476 68.1558 58.8882 67.177 58.8882C66.1982 58.8882 65.4043 58.0476 65.4043 57.0112C65.4043 55.9746 66.1982 55.1342 67.177 55.1342Z" fill="#21D0C3"/>
<path d="M64.6332 59.6933H69.7202V60.0742H64.6332V59.6933ZM64.6332 62.0867H68.0503V62.4676H64.6332V62.0867V62.0867ZM64.6332 60.8896H69.7202V61.2706H64.6332V60.8896Z" fill="#DCE3DB"/>
<path d="M77.4375 40.04H55.1013V37.4672C55.1013 37.3792 55.1687 37.3078 55.2519 37.3078H77.2862C77.3694 37.3078 77.4368 37.3792 77.4368 37.4672V40.04H77.4375Z" fill="#21D0C3"/>
<path d="M56.7573 38.0849C57.0787 38.0849 57.3387 38.3602 57.3387 38.7C57.3387 39.0398 57.0787 39.315 56.7573 39.315C56.4364 39.315 56.1764 39.0398 56.1764 38.7C56.1764 38.3602 56.4367 38.0849 56.7573 38.0849Z" fill="#ECF0F1"/>
<path d="M58.3929 38.0849C58.7138 38.0849 58.9738 38.3602 58.9738 38.7C58.9738 39.0398 58.7138 39.315 58.3929 39.315C58.072 39.315 57.812 39.0398 57.812 38.7C57.812 38.3602 58.072 38.0849 58.3929 38.0849Z" fill="#ECF0F1"/>
<path d="M60.0284 38.0849C60.3493 38.0849 60.6093 38.3602 60.6093 38.7C60.6093 39.0398 60.3493 39.315 60.0284 39.315C59.7075 39.315 59.4475 39.0398 59.4475 38.7C59.4475 38.3602 59.7078 38.0849 60.0284 38.0849Z" fill="#ECF0F1"/>
<path d="M63.2886 38.2224H76.5714C76.6694 38.2224 76.749 38.334 76.749 38.4704V38.9306C76.749 39.067 76.6694 39.1786 76.5714 39.1786H63.2886C63.1907 39.1786 63.111 39.067 63.111 38.9306V38.4704C63.111 38.334 63.1907 38.2224 63.2886 38.2224Z" fill="white"/>
<path d="M82.7409 50.439H73.124V49.314C73.124 49.2757 73.1532 49.2453 73.1889 49.2453H82.6759C82.7118 49.2453 82.7409 49.2757 82.7409 49.314V50.439Z" fill="#21D0C3"/>
<path d="M73.8033 49.4473C73.987 49.4473 74.1355 49.6044 74.1355 49.799C74.1355 49.9931 73.987 50.1508 73.8033 50.1508C73.62 50.1508 73.4711 49.9931 73.4711 49.799C73.4711 49.6044 73.62 49.4473 73.8033 49.4473Z" fill="white"/>
<path d="M74.7382 49.4473C74.922 49.4473 75.0704 49.6044 75.0704 49.799C75.0704 49.9931 74.922 50.1508 74.7382 50.1508C74.5544 50.1508 74.406 49.9931 74.406 49.799C74.406 49.6044 74.5548 49.4473 74.7382 49.4473Z" fill="#ECF0F1"/>
<path d="M75.6729 49.4473C75.8567 49.4473 76.0051 49.6044 76.0051 49.799C76.0051 49.9931 75.8567 50.1508 75.6729 50.1508C75.4896 50.1508 75.3407 49.9931 75.3407 49.799C75.3407 49.6044 75.4896 49.4473 75.6729 49.4473Z" fill="#ECF0F1"/>
<path d="M77.0235 49.4928H82.3705C82.4422 49.4928 82.5002 49.5543 82.5002 49.6301V49.998C82.5002 50.0739 82.4421 50.1353 82.3705 50.1353H77.0235C76.9517 50.1353 76.8938 50.0738 76.8938 49.998V49.6301C76.8938 49.5545 76.9519 49.4928 77.0235 49.4928Z" fill="white"/>
<path d="M73.5903 50.8245H82.2743V56.2441H73.5903V50.8245Z" fill="#ECF0F1"/>
<path d="M78.1875 57.3552C79.0777 57.3552 79.7992 58.1191 79.7992 59.062C79.7992 60.0046 79.0777 60.7689 78.1875 60.7689C77.2973 60.7689 76.5758 60.0049 76.5758 59.062C76.576 58.1195 77.2975 57.3552 78.1875 57.3552Z" fill="#FAD24D"/>
<path d="M75.3899 62.0117H80.9846V62.4302H75.3899V62.0117ZM75.3899 64.6443H79.1485V65.0629H75.3899V64.6443ZM75.3899 63.3279H80.9846V63.7464H75.3899V63.3279Z" fill="#DCE3DB"/>
<path d="M6.69421 69.2528H78.3058C78.0686 69.6448 77.8239 70.0307 77.5757 70.4142H7.42485C7.17666 70.0307 6.93162 69.6446 6.69421 69.2528Z" fill="#EDB937"/>
<path d="M63.445 35.8518H69.095C69.1754 35.8518 69.2405 35.9207 69.2405 36.0058V36.0063C69.2405 36.0914 69.1754 36.1603 69.095 36.1603H63.445C63.3646 36.1603 63.2996 36.0914 63.2996 36.0063V36.0058C63.2996 35.9209 63.3646 35.8518 63.445 35.8518Z" fill="#B6B6B8"/>
</svg>
