<svg width="143" height="105" viewBox="0 0 143 105" fill="none" xmlns="http://www.w3.org/2000/svg">
<g id="School">
<path id="Vector" d="M12.2519 39.8338H7.91918V99.9909H12.2519V39.8338Z" fill="black"/>
<path id="Vector_2" d="M135.082 39.8338H130.749V99.9909H135.082V39.8338Z" fill="black"/>
<path id="Vector_3" d="M73.6659 17.0703H69.3332V26.8257H73.6659V17.0703Z" fill="black"/>
<path id="Vector_4" d="M58.3127 16.0486L71.5 4.87703L84.6873 16.0486V31.6839H143L132.06 15.4654H91.2404V18.6769H129.383L135.99 28.4722H89.0197V14.8421L71.5 0L53.98 14.8421V28.4722H7.01035L13.6177 18.6769H51.7596V15.4654H10.9398L0 31.6839H58.3127V16.0486Z" fill="black"/>
<path id="Vector_5" d="M137.274 33.3298H132.942V34.9757H10.0583V33.3298H5.72559V38.1873H137.274V33.3298Z" fill="black"/>
<path id="Vector_6" d="M91.2415 101.635H51.7601V104.847H91.2415V101.635Z" fill="black"/>
<path id="Vector_7" d="M141.688 101.635H93.434V104.847H141.688V101.635Z" fill="black"/>
<path id="Vector_8" d="M49.5654 101.635H1.31186V104.847H49.5654V101.635Z" fill="black"/>
<path id="Vector_9" d="M86.8541 96.7581H56.1476V99.9698H86.8541V96.7581Z" fill="black"/>
<path id="Vector_10" d="M82.4398 90.235V54.4861H60.5602V90.235H64.8927V57.6975H78.1073V90.235H82.4398Z" fill="black"/>
<path id="Vector_11" d="M34.1854 90.2147V43.1049H18.8861V90.2147H34.1854ZM23.2188 46.3166H29.8532V73.9963H23.2188V46.3166ZM23.2188 77.208H29.8532V87.0032H23.2188V77.208Z" fill="black"/>
<path id="Vector_12" d="M53.9258 90.2147V43.1049H38.6265V90.2147H53.9258ZM42.9592 46.3166H49.5936V60.9896H42.9592V46.3166ZM42.9592 64.201H49.5936V87.0032H42.9592V64.201Z" fill="black"/>
<path id="Vector_13" d="M104.374 90.2147V43.1049H89.0739V90.2147H104.374ZM93.4066 46.3166H100.041V51.2344H93.4066V46.3166ZM93.4066 54.4459H100.041V87.0035H93.4066V54.4459Z" fill="black"/>
<path id="Vector_14" d="M124.114 90.2147V43.1049H108.814V90.2147H124.114ZM113.147 46.3166H119.781V73.9963H113.147V46.3166ZM113.147 77.208H119.781V87.0032H113.147V77.208Z" fill="black"/>
<path id="Vector_15" d="M71.4735 75.6022H67.1407V78.8541H71.4735V75.6022Z" fill="black"/>
<path id="Vector_16" d="M82.4663 91.8807H60.5323V95.0923H82.4663V91.8807Z" fill="black"/>
</g>
</svg>
